<?xml version="1.0" encoding="utf-8"?>
<!-- Generator: Adobe Illustrator 22.1.0, SVG Export Plug-In . SVG Version: 6.00 Build 0)  -->
<svg version="1.1" id="图层_1" xmlns="http://www.w3.org/2000/svg" xmlns:xlink="http://www.w3.org/1999/xlink" x="0px" y="0px"
	 viewBox="0 0 595.3 595.3" style="enable-background:new 0 0 595.3 595.3;" xml:space="preserve">
<style type="text/css">
	.st0{fill:#9b0000;}
</style>
<g>
	<g>
		<path class="st0" d="M196.9,552.1l-0.4,0.2c-2.4-1.3-5.4-2.8-9-4.4c-3.5-1.6-7.3-3.2-11.2-4.8l-0.2-0.4l0.7-1.6l0.4-0.1
			c1,0.3,1.9,0.6,2.8,0.9c1.6,0.6,2.6,0.9,3.1,0.9c0.4,0,0.8-0.2,1.2-0.6c0.7-0.7,2.4-4,5.1-9.9l3-6.7c0.9-2,2-4.5,3.3-7.6l0.9-2
			c0.4-0.9,0.4-1.4,0-1.6c-0.2-0.1-0.8-0.1-1.9-0.1c-3,0-5.5,0.1-7.6,0.1l-0.2-0.3c0.4-1.1,0.7-2.3,1-3.7l0.1-0.2
			c5.6,0.8,11.9,1.5,19,1.9l0.4,0.7c-0.5,1-1.4,2.5-2.4,4.5c-0.4,0.8-1.4,2.8-3,6.2l-4.8,10.5c-3.4,7.5-5.1,11.6-5.1,12.3
			c0,0.5,0.1,0.9,0.5,1.1c0.6,0.5,2.2,1.4,4.8,2.8l0.2,0.4L196.9,552.1z"/>
		<path class="st0" d="M277.9,558.3c-0.3,2.3-1,4.3-2.2,5.9c-2.2,3.1-5.3,5-9.4,5.7c-1.7,0.3-3.7,0.3-6,0c-4.9-0.7-8.5-2.8-10.7-6.5
			c-1-1.6-1.3-3.7-1-6.1c0.4-3,1.8-5.2,4.1-6.8c0.8-0.5,2.4-1.2,5-2c-4.1-2.8-5.9-6.2-5.3-10.2c0.6-4.6,3.4-7.6,8.3-9.1
			c2.1-0.7,4.5-0.8,7-0.5c3.7,0.5,6.6,1.7,8.5,3.7c1.8,1.9,2.6,4.1,2.2,6.7c-0.5,3.5-2.9,6.1-7.4,7.7c2.9,1.6,4.9,3.3,5.9,5.2
			C277.9,553.7,278.3,555.8,277.9,558.3z M270.2,560.7c0.4-2.8-0.7-5.1-3.4-6.9c-1.7-1.2-3.5-2.3-5.5-3.3l-0.8-0.4
			c-3.4,1.7-5.3,4.2-5.7,7.4c-0.2,1.9-0.1,3.4,0.5,4.7c1.4,2.8,3.6,4.4,6.7,4.8c2.2,0.3,4-0.1,5.5-1.3
			C269,564.4,269.9,562.8,270.2,560.7z M272.8,539.1c0.3-1.9-0.2-3.5-1.3-4.9c-1.1-1.3-2.8-2.1-4.9-2.4c-2-0.3-3.6,0.1-4.9,1
			c-1.2,0.9-1.9,2.1-2.1,3.6c-0.2,1.5,0.3,2.9,1.6,4.3c0.7,0.7,1.7,1.5,3,2.3c0.5,0.3,1.2,0.7,2.2,1.3l1.7,0.9
			C270.8,544.1,272.4,542.1,272.8,539.1z"/>
		<path class="st0" d="M347.1,543.3c0.7,5.2,0.3,9.6-1.3,13.3c-1.7,3.9-4.2,7.1-7.5,9.7c-3.4,2.7-7.3,4.3-11.7,4.9l-2.8-1.6l0.6-1.3
			c0.7,0.1,1.5,0.1,2.5,0c3.4-0.5,6.2-2,8.4-4.6c0.9-1,1.7-2.4,2.3-4c1.1-2.6,1.5-6.2,1.4-10.9c-2.9,3.1-4.5,4.7-4.8,4.8
			c-1.4,0.7-2.9,1.1-4.5,1.3c-2.9,0.4-5.4-0.2-7.5-1.9c-2.2-1.8-3.6-4.5-4.1-8c-0.8-5.7,0.9-10.3,4.9-13.6c1.9-1.6,4.4-2.6,7.5-3
			c5.8-0.8,10.3,1.1,13.4,5.6C345.5,536.4,346.5,539.4,347.1,543.3z M338.1,541.5c-0.5-3.6-1.5-6.2-2.9-7.8c-1.4-1.6-3.1-2.2-5.2-2
			c-2.5,0.3-4,1.8-4.6,4.4c-0.3,1.4-0.3,3-0.1,4.7c0.4,3,1.4,5.3,2.8,6.7c1.4,1.4,3.1,1.9,5.1,1.6c2.6-0.4,4.1-1.6,4.7-3.8
			C338.3,544.4,338.4,543.1,338.1,541.5z"/>
		<path class="st0" d="M416.2,531.1c0.9,2.1,1.3,4.2,1.2,6.2c-0.3,3.8-1.9,7.1-5.1,9.8c-1.3,1.1-3,2.2-5.1,3.1c-4.5,2-8.7,2-12.5,0
			c-1.7-0.9-3-2.5-4-4.7c-1.2-2.7-1.2-5.4,0-8c0.4-0.8,1.5-2.3,3.2-4.3c-4.9-0.3-8.2-2.3-9.9-6c-1.8-4.2-1.1-8.2,2.3-12.1
			c1.5-1.7,3.4-3,5.7-4c3.5-1.5,6.5-1.9,9.2-1.2c2.5,0.7,4.3,2.2,5.4,4.6c1.4,3.2,0.7,6.7-2.3,10.4c3.3-0.2,5.9,0.3,7.7,1.4
			C413.8,527.1,415.1,528.8,416.2,531.1z M401.9,517.3c-0.8-1.8-2-2.9-3.6-3.5c-1.6-0.6-3.5-0.4-5.5,0.5c-1.8,0.8-3,1.9-3.6,3.4
			c-0.6,1.4-0.6,2.8,0.1,4.1c0.6,1.4,1.8,2.3,3.6,2.9c0.9,0.3,2.2,0.4,3.8,0.4c0.6,0,1.4,0,2.5,0l1.9-0.1
			C402.8,522.7,403.1,520.1,401.9,517.3z M410.8,537.2c-1.1-2.6-3.3-4-6.5-4.2c-2.1-0.1-4.2-0.1-6.5,0l-0.9,0.1
			c-2,3.2-2.3,6.3-1,9.3c0.8,1.7,1.7,3,2.9,3.7c2.6,1.7,5.3,1.9,8.2,0.7c2-0.9,3.3-2.2,4-4C411.7,541,411.6,539.1,410.8,537.2z"/>
	</g>
	<g>
		<path class="st0" d="M182.5,23.4c-35.4,15-67.3,36.5-94.6,63.8c-27.3,27.3-48.8,59.2-63.8,94.6C8.6,218.5,0.7,257.5,0.7,297.7
			c0,40.2,7.9,79.2,23.4,115.9c15,35.4,36.5,67.3,63.8,94.6c27.3,27.3,59.2,48.8,94.6,63.8c36.7,15.5,75.7,23.4,115.8,23.4
			s79.2-7.9,115.9-23.4c35.4-15,67.3-36.4,94.6-63.8c27.3-27.3,48.8-59.2,63.8-94.6c15.5-36.7,23.4-75.7,23.4-115.9
			c0-40.2-7.9-79.2-23.4-115.9c-15-35.4-36.5-67.3-63.8-94.6c-27.3-27.3-59.2-48.8-94.6-63.8C377.5,7.9,338.5,0,298.3,0
			C258.2,0,219.2,7.9,182.5,23.4z M186.3,562.8c-34.3-14.5-65-35.2-91.5-61.7c-26.4-26.4-47.2-57.2-61.7-91.5
			c-15-35.5-22.6-73.2-22.6-112c0-38.9,7.6-76.5,22.6-112c14.5-34.3,35.2-65.1,61.7-91.5c26.4-26.4,57.2-47.2,91.5-61.7
			c35.5-15,73.2-22.6,112-22.6c38.9,0,76.5,7.6,112,22.6c34.3,14.5,65.1,35.3,91.5,61.7c26.4,26.4,47.2,57.2,61.7,91.5
			c15,35.5,22.6,73.2,22.6,112c0,38.9-7.6,76.5-22.6,112c-14.5,34.3-35.2,65-61.7,91.5c-26.4,26.4-57.2,47.2-91.5,61.7
			c-35.5,15-73.2,22.6-112,22.6C259.5,585.4,221.8,577.8,186.3,562.8z"/>
	</g>
	<path class="st0" d="M212.7,94.8c-26.2,11.1-49.7,27-70,47.2c-20.2,20.2-36.1,43.7-47.2,70c-11.5,27.1-17.3,56-17.3,85.7
		c0,29.7,5.8,58.5,17.3,85.7c11.1,26.2,27,49.7,47.2,70c20.2,20.2,43.7,36.1,70,47.2c27.1,11.5,55.9,17.3,85.7,17.3
		c29.7,0,58.6-5.8,85.7-17.3c26.2-11.1,49.8-27,70-47.2c20.2-20.2,36.1-43.7,47.2-70c11.5-27.1,17.3-56,17.3-85.7
		c0-29.7-5.8-58.5-17.3-85.7c-11.1-26.2-27-49.7-47.2-70c-20.2-20.2-43.8-36.1-70-47.2c-27.1-11.5-56-17.3-85.7-17.3
		C268.6,77.5,239.8,83.4,212.7,94.8z M215.3,494.3c-25.4-10.8-48.2-26.1-67.8-45.8c-19.6-19.6-35-42.4-45.7-67.9
		c-11.1-26.3-16.8-54.3-16.8-83.1c0-28.8,5.6-56.8,16.8-83.1c10.8-25.4,26.1-48.2,45.7-67.8c19.6-19.6,42.4-35,67.8-45.7
		c26.3-11.1,54.3-16.8,83.1-16.8c28.8,0,56.8,5.6,83.1,16.8c25.4,10.8,48.3,26.1,67.9,45.7c19.6,19.6,35,42.4,45.7,67.8
		c11.1,26.3,16.8,54.3,16.8,83.1c0,28.8-5.6,56.8-16.8,83.1c-10.8,25.4-26.1,48.2-45.7,67.9c-19.6,19.6-42.4,35-67.9,45.8
		c-26.3,11.1-54.3,16.8-83.1,16.8C269.5,511.1,241.6,505.4,215.3,494.3z"/>
	<g>
		<path class="st0" d="M45.9,373.9c2.1-0.8,4-1,5.8-0.8c1.8,0.3,3.5,1,5,2.1c1.6,1.2,2.9,2.7,4.1,4.5c1.2,1.8,2.2,4,3.2,6.4l1.1,3
			l10.3-3.9c0.6-0.2,1.1-0.6,1.5-1c0.4-0.4,0.6-1,0.6-1.8c0-0.4-0.1-1-0.2-1.9c-0.1-0.8-0.3-1.6-0.5-2.1l2-0.8l7.6,20l-2,0.8
			c-0.2-0.5-0.6-1.1-1-1.9c-0.4-0.8-0.8-1.3-1-1.6c-0.5-0.6-1-0.9-1.5-1c-0.5-0.1-1.1,0-1.8,0.3l-25.9,9.9c-0.6,0.2-1.1,0.5-1.4,0.9
			c-0.4,0.4-0.6,1-0.6,1.8c0,0.6,0,1.3,0.2,2.2c0.1,0.9,0.3,1.5,0.4,1.9l-2,0.8l-7.7-20.2c-1.8-4.7-2.4-8.6-1.8-11.5
			C40.9,377.1,42.8,375,45.9,373.9z M51,383.4c-2.8,1.1-4.6,2.4-5.5,4c-0.9,1.6-0.8,3.8,0.3,6.7l0.8,2.1l16.1-6.1l-0.4-1.1
			c-1.1-2.8-2.5-4.7-4.4-5.7C56,382.3,53.7,382.4,51,383.4z"/>
		<path class="st0" d="M35.5,312.3l0.2,2.1c-1.4,0.7-2.8,1.8-4.2,3.2c-1.4,1.5-2.1,2.8-2.2,4.1c-0.1,0.6-0.1,1.3,0,2.3
			c0.1,1,0.2,1.8,0.2,2.4l0.7,5.6l15-1.8l-0.5-4c-0.1-1-0.3-1.9-0.7-2.7c-0.3-0.8-0.9-1.5-1.6-2.1c-0.5-0.4-1.3-0.7-2.4-1
			c-1.1-0.3-2.1-0.5-2.9-0.5L37,318l16.2-1.9l0.2,2.1c-0.8,0.2-1.7,0.6-2.8,1.2c-1.1,0.6-1.9,1.1-2.3,1.5c-0.6,0.7-1,1.4-1.1,2.3
			c-0.2,0.8-0.2,1.8,0,2.9l0.5,4l11.3-1.3c1.2-0.1,2.1-0.3,2.8-0.6c0.7-0.3,1.2-0.6,1.5-1.2c0.3-0.5,0.5-1.1,0.5-2
			c0-0.8-0.1-1.9-0.2-3.3c-0.1-0.6-0.2-1.4-0.3-2.3c-0.1-0.9-0.3-1.7-0.4-2.3c-0.2-0.8-0.4-1.5-0.7-2.1c-0.3-0.6-0.6-1.1-1-1.4
			c-1-0.8-2.5-1.6-4.4-2.5c-2-0.9-3.4-1.4-4.4-1.7l-0.2-2l12.2-0.7l4.3,36.5l-2.1,0.3c-0.1-0.5-0.3-1.2-0.5-2.1
			c-0.2-0.9-0.4-1.5-0.6-1.8c-0.4-0.7-0.8-1.1-1.3-1.3c-0.5-0.2-1.1-0.2-1.8-0.2l-27.5,3.2c-0.7,0.1-1.2,0.2-1.6,0.5
			c-0.4,0.3-0.7,0.8-1,1.6c-0.2,0.5-0.3,1.2-0.4,2.1c-0.1,0.9-0.1,1.6-0.1,2l-2.1,0.2l-4-34.5L35.5,312.3z"/>
		<path class="st0" d="M70.7,239.7L68.5,255c-3.9,1.8-7.2,3.5-9.8,5c-2.7,1.5-6,3.5-10,5.8l-0.2,1.4l12.2,1.7
			c0.7,0.1,1.2,0.1,1.7-0.1c0.5-0.2,0.9-0.6,1.4-1.3c0.2-0.3,0.4-0.8,0.6-1.4c0.2-0.6,0.4-1.2,0.6-1.9l2.1,0.3l-2.9,20.6L62,285
			c0-0.5,0.1-1.2,0.1-2.1c0.1-0.9,0-1.6-0.1-1.9c-0.2-0.7-0.5-1.2-0.9-1.5c-0.4-0.3-1-0.5-1.7-0.6L32,274.9
			c-0.6-0.1-1.2-0.1-1.7,0.1c-0.5,0.2-0.9,0.6-1.4,1.3c-0.3,0.5-0.6,1.2-0.9,2c-0.3,0.8-0.5,1.4-0.6,1.9l-2.1-0.3l3-21.3l2.1,0.3
			c0,0.6,0,1.3-0.1,2.1c0,0.8,0,1.5,0.1,2.1c0.1,0.7,0.4,1.3,0.9,1.6c0.5,0.3,1,0.5,1.7,0.6l13.1,1.9l0.2-1.1
			c-1.1-1.6-2.4-3.5-4-5.6c-1.6-2.2-2.8-3.8-3.9-5c-1.4-1.7-2.6-2.9-3.4-3.8c-0.9-0.8-1.6-1.3-2.3-1.4c-0.3,0-0.6,0.3-0.9,0.9
			c-0.3,0.6-0.5,1.6-0.8,3l-2.1-0.3l2.4-16.9l2.1,0.3c-0.1,2.1,0.1,3.8,0.4,5.3c0.3,1.4,1,2.9,2,4.5c1.5,2.2,2.8,4,3.9,5.4
			c1.1,1.4,2.5,3.3,4.2,5.5c2.4-1.4,5.3-3.2,8.7-5.2c3.4-2,6.8-4,10.1-6c0.8-0.5,1.7-1.1,2.5-1.8c0.8-0.7,1.5-1.5,2-2.4
			c0.3-0.4,0.5-0.9,0.7-1.5c0.2-0.6,0.3-1,0.4-1.5L70.7,239.7z"/>
		<path class="st0" d="M85.5,200.8L77.4,221l-2-0.8c0.2-0.5,0.4-1.2,0.7-2.1c0.3-0.9,0.4-1.6,0.4-2c0-0.7-0.2-1.3-0.5-1.7
			c-0.3-0.4-0.8-0.7-1.5-1l-25.8-10.3c-0.6-0.2-1.1-0.3-1.7-0.3c-0.5,0-1.1,0.3-1.6,0.9c-0.3,0.3-0.8,0.9-1.3,1.6
			c-0.5,0.7-0.9,1.4-1.2,1.9l-2-0.8l8.1-20.2l2,0.8c-0.2,0.5-0.3,1.2-0.6,2c-0.2,0.8-0.3,1.5-0.4,2.1c0,0.8,0.1,1.3,0.5,1.8
			c0.4,0.4,0.9,0.7,1.5,1l25.8,10.3c0.6,0.2,1.2,0.3,1.7,0.3c0.5-0.1,1.1-0.4,1.6-0.9c0.3-0.3,0.7-0.8,1.2-1.6
			c0.5-0.8,0.8-1.4,1.1-2L85.5,200.8z"/>
		<path class="st0" d="M91.8,121.1c-0.3,0.4-0.6,1.1-1,2c-0.4,0.9-0.6,1.8-0.6,2.7c0,0.8,0.4,1.7,1.2,2.7c0.8,0.9,2.2,2.1,4.1,3.5
			l22.8,16.4l-2.9,4l-38.9,2.1l15,10.7c1.9,1.3,3.4,2.2,4.5,2.7c1.1,0.4,2.1,0.6,3,0.3c0.6-0.2,1.4-0.6,2.3-1.3
			c0.9-0.7,1.6-1.3,2-1.7l1.8,1.3l-9.8,13.7l-1.8-1.3c0.4-0.6,0.7-1.4,1.1-2.2c0.4-0.9,0.6-1.7,0.6-2.5c0-0.9-0.4-1.8-1.1-2.6
			c-0.7-0.8-2.1-2-4.2-3.5l-15.1-10.9c-0.8-0.5-1.5-0.9-2.4-1.2c-0.8-0.2-1.7-0.3-2.5-0.2c-0.9,0.2-1.7,0.5-2.5,0.9
			c-0.8,0.5-1.6,1.1-2.3,1.8l-1.8-1.3l8.6-12l34.1-1.8l-12.1-8.7c-1.9-1.4-3.5-2.3-4.6-2.7c-1.1-0.4-2.1-0.5-3-0.3
			c-0.7,0.2-1.4,0.6-2.3,1.3c-0.9,0.7-1.5,1.2-2,1.7l-1.7-1.2l9.8-13.6L91.8,121.1z"/>
		<path class="st0" d="M159.8,88.8c-0.4,0.4-0.8,0.8-1.1,1.1c-0.3,0.3-0.6,0.8-1,1.4c-0.4,0.7-0.6,1.3-0.4,1.9
			c0.2,0.6,0.4,1.1,0.8,1.6l2.9,3.6c0.6,0.7,1,1.3,1.4,1.7c0.4,0.4,0.8,1,1.4,1.6c-0.7,2-2.2,4.5-4.4,7.6c-2.2,3-4.5,5.5-6.8,7.4
			c-2.2,1.8-4.6,3.1-7,4c-2.5,0.9-5,1.2-7.5,1.1c-2.5-0.2-5-0.9-7.5-2.2c-2.4-1.3-4.7-3.2-6.7-5.8c-1.9-2.4-3.3-4.9-4.1-7.6
			c-0.8-2.7-1.1-5.3-0.8-8c0.3-2.6,1.2-5.2,2.6-7.7c1.5-2.5,3.5-4.7,6-6.8c1.7-1.4,3.5-2.5,5.3-3.2c1.8-0.8,3.4-1.3,4.8-1.6l0.4-2.3
			l1.9-1.5l9.2,11l-1.9,1.5c-3.8-2.5-7.1-3.9-9.9-4.3c-2.8-0.4-5.4,0.3-7.7,2.2c-2.8,2.2-3.9,5.1-3.5,8.7c0.4,3.6,2.3,7.5,5.7,11.8
			c3.6,4.5,7.2,7.4,10.7,8.8c3.5,1.4,6.6,1,9.3-1.2c1.3-1,2.2-2.1,2.9-3.3c0.7-1.2,1.1-2.2,1.2-3.2l-5-6.2c-0.4-0.5-0.9-0.9-1.3-1.1
			c-0.5-0.2-1.1-0.2-1.9,0c-0.6,0.1-1.3,0.4-2,0.8c-0.8,0.4-1.4,0.7-1.8,1l-1.4-1.7l15.9-12.8L159.8,88.8z"/>
		<path class="st0" d="M251.2,30.1c-0.5,0.2-1.2,0.5-2.2,1c-0.9,0.5-1.7,1-2.2,1.6c-0.6,0.6-0.8,1.6-0.8,2.8c0,1.2,0.4,3,1,5.3
			l3.8,14.1c1.1,4.1,0.6,7.8-1.6,11.1c-2.1,3.3-5.5,5.5-10.2,6.8c-5.4,1.4-9.9,1.3-13.5-0.3c-3.6-1.6-6-4.6-7.2-9l-5.2-19.4
			c-0.2-0.6-0.4-1.1-0.8-1.5c-0.4-0.4-0.9-0.7-1.7-0.8c-0.5-0.1-1.1-0.1-1.9-0.1c-0.7,0-1.3,0.1-1.7,0.1l-0.6-2.1l19.9-5.3l0.6,2.1
			c-0.6,0.2-1.1,0.4-1.7,0.7c-0.6,0.3-1.1,0.6-1.7,0.9c-0.6,0.4-1,0.9-1.1,1.4c-0.1,0.6-0.1,1.1,0.1,1.8l5.1,19.1
			c1,3.8,2.6,6.3,4.7,7.5c2.1,1.3,4.8,1.5,7.9,0.6c3.1-0.8,5.3-2.4,6.6-4.8c1.3-2.4,1.4-5.4,0.4-9l-3.4-12.8c-0.6-2.3-1.2-3.9-1.8-5
			c-0.6-1-1.3-1.7-2.1-2.1c-0.6-0.3-1.5-0.4-2.7-0.4c-1.2,0-2.1,0-2.6,0.1l-0.6-2.1l16.5-4.4L251.2,30.1z"/>
		<path class="st0" d="M325.3,27.3c-0.5,0-1.3,0.1-2.2,0.3c-1,0.1-1.8,0.5-2.6,1c-0.7,0.5-1.2,1.3-1.5,2.5c-0.3,1.2-0.5,3-0.5,5.3
			l-0.4,28.1l-4.9-0.1l-23.9-30.7L289,52.2c0,2.3,0.1,4,0.4,5.2c0.3,1.2,0.8,2.1,1.4,2.6c0.5,0.4,1.3,0.8,2.4,1.1
			c1.1,0.3,1.9,0.6,2.6,0.7l0,2.2l-16.9-0.2l0-2.2c0.7,0,1.5-0.2,2.5-0.4c0.9-0.2,1.7-0.5,2.3-1c0.7-0.5,1.2-1.3,1.5-2.4
			c0.3-1.1,0.4-2.9,0.5-5.4l0.3-18.6c0-0.9-0.1-1.8-0.4-2.6c-0.3-0.8-0.7-1.5-1.3-2.1c-0.6-0.6-1.4-1.1-2.2-1.5
			c-0.8-0.4-1.8-0.7-2.8-0.9l0-2.2l14.8,0.2l21,26.9l0.2-14.9c0-2.4-0.1-4.1-0.4-5.3c-0.3-1.2-0.8-2-1.4-2.6
			c-0.5-0.4-1.3-0.8-2.3-1.1c-1-0.3-1.9-0.5-2.5-0.7l0-2.1l16.8,0.2L325.3,27.3z"/>
		<path class="st0" d="M367.6,74.3l-21.1-5.5l0.5-2.1c0.5,0.1,1.2,0.2,2.2,0.4c1,0.2,1.6,0.2,2,0.2c0.7-0.1,1.3-0.3,1.6-0.7
			c0.4-0.4,0.6-0.9,0.8-1.6l7-26.9c0.2-0.6,0.2-1.2,0.1-1.7c-0.1-0.5-0.5-1-1.1-1.5c-0.4-0.3-1-0.6-1.8-1c-0.8-0.4-1.5-0.7-2.1-0.9
			l0.5-2.1l21.1,5.5l-0.5,2.1c-0.5-0.1-1.2-0.2-2.1-0.3c-0.8-0.1-1.5-0.1-2.1-0.1c-0.8,0.1-1.3,0.3-1.7,0.7c-0.4,0.4-0.6,1-0.8,1.6
			l-7,26.9c-0.2,0.6-0.2,1.2-0.1,1.7c0.1,0.5,0.5,1,1.1,1.5c0.3,0.3,0.9,0.6,1.7,0.9c0.8,0.4,1.5,0.7,2.1,0.8L367.6,74.3z"/>
		<path class="st0" d="M444.9,69c-0.6-0.2-1.1-0.4-1.7-0.5c-0.6-0.1-1.2-0.2-1.9-0.1c-0.9,0-1.7,0.2-2.3,0.4
			c-0.6,0.3-1.3,0.7-2.2,1.3c-1.1,0.9-2.7,2.1-4.7,3.8c-2.1,1.7-4.4,3.6-7,5.7c-2.3,1.9-4.9,4-7.7,6.3c-2.8,2.3-5.4,4.5-8,6.6
			l-4.9-2.6c0.7-6.8,1.4-13.7,2.1-20.7c0.7-7,1.2-11.9,1.4-14.7c0.1-1,0-1.8-0.1-2.4c-0.1-0.6-0.5-1.3-1-2.2
			c-0.4-0.6-0.8-1.1-1.1-1.4c-0.4-0.3-0.9-0.7-1.5-1.2l1-1.9l18.8,10l-1,1.9c-1.9-0.7-3.3-1.2-4-1.3c-0.8-0.1-1.2,0-1.4,0.4
			c-0.1,0.2-0.2,0.4-0.2,0.6c0,0.2-0.1,0.5-0.2,0.9c-0.2,1.7-0.5,4.6-0.9,8.6c-0.4,4-1,10.1-1.8,18.2c3.8-3.2,7-5.9,9.6-8.2
			c2.6-2.2,4.9-4.2,6.9-6c1-0.8,1.8-1.6,2.6-2.4c0.7-0.8,1.2-1.4,1.5-1.8c0.3-0.5,0.1-1.2-0.4-1.9c-0.6-0.8-1.9-1.8-3.8-3l1-2
			l14.1,7.4L444.9,69z"/>
		<path class="st0" d="M487.6,114.6l-1.6-1.5c0.6-1.5,1-3.2,1-5.2c0.1-2-0.3-3.5-1-4.6c-0.3-0.5-0.8-1-1.5-1.7
			c-0.7-0.7-1.3-1.2-1.8-1.7l-4.2-3.8l-10.2,11.2l2.9,2.7c0.7,0.7,1.5,1.2,2.3,1.6c0.8,0.4,1.6,0.5,2.6,0.5c0.6,0,1.4-0.3,2.4-0.8
			c1-0.5,1.9-1,2.5-1.5l1.6,1.5l-11,12.1l-1.6-1.5c0.4-0.6,0.9-1.6,1.4-2.7c0.5-1.2,0.7-2,0.7-2.6c0-0.9-0.2-1.7-0.6-2.5
			c-0.4-0.7-1.1-1.5-1.8-2.2l-2.9-2.7l-7.6,8.4c-0.8,0.9-1.4,1.6-1.7,2.3c-0.3,0.6-0.5,1.2-0.4,1.8c0.1,0.6,0.4,1.2,0.9,1.8
			c0.5,0.6,1.3,1.4,2.3,2.3c0.5,0.4,1,0.9,1.7,1.5c0.7,0.6,1.3,1.1,1.9,1.5c0.6,0.5,1.3,0.8,1.9,1.2c0.6,0.3,1.2,0.5,1.6,0.4
			c1.3-0.1,2.9-0.4,5-1c2.1-0.6,3.5-1.2,4.4-1.6l1.5,1.3l-8.8,8.5l-27.1-24.8l1.5-1.6c0.4,0.3,1,0.7,1.7,1.3c0.7,0.5,1.3,0.8,1.7,1
			c0.7,0.3,1.3,0.3,1.8,0.1c0.5-0.2,1-0.5,1.4-1L469,92c0.5-0.5,0.7-1,0.9-1.4c0.1-0.5,0-1.1-0.3-1.9c-0.2-0.5-0.6-1.1-1.1-1.8
			c-0.5-0.7-0.9-1.3-1.2-1.6l1.5-1.6l25.7,23.4L487.6,114.6z"/>
		<path class="st0" d="M507.9,191.6l-8.2-12.7c1.9-4.3,3.4-7.9,4.5-10.6c1-2.7,2.2-6,3.4-9.8l-0.8-1.2l-10,6.4
			c-0.6,0.4-1,0.8-1.2,1.2c-0.3,0.5-0.3,1.1-0.2,1.8c0.1,0.4,0.2,0.9,0.5,1.6c0.3,0.7,0.5,1.3,0.8,1.8l-1.8,1.2l-11.4-17.6l1.8-1.2
			c0.3,0.4,0.8,1,1.4,1.7c0.6,0.7,1,1.1,1.3,1.4c0.6,0.4,1.2,0.6,1.7,0.6c0.5,0,1.1-0.3,1.6-0.6l23.3-15c0.6-0.4,1-0.7,1.2-1.2
			c0.3-0.4,0.3-1,0.2-1.9c-0.1-0.6-0.3-1.3-0.6-2.1c-0.3-0.8-0.5-1.4-0.7-1.8l1.8-1.2l11.9,18.5c2.7,4.1,4.1,7.7,4.1,10.7
			c0.1,3-1.2,5.3-3.8,7c-2.3,1.5-4.6,2-6.9,1.6c-2.3-0.4-4.7-1.7-7.2-3.9c-0.7,1.9-1.5,4.2-2.4,6.7c-0.9,2.6-1.8,5.2-2.7,7.9
			c-0.3,0.9-0.6,2-0.9,3.4c-0.3,1.4-0.4,2.5-0.2,3.2c0.1,0.4,0.3,0.9,0.6,1.5c0.3,0.6,0.5,1,0.6,1.3L507.9,191.6z M522.3,160
			c2.2-1.4,3.4-3.1,3.6-5c0.2-1.9-0.4-4-1.9-6.2l-1.2-1.8l-13.8,8.9l1.1,1.8c1.5,2.3,3.2,3.7,5.2,4.1
			C517.4,162.3,519.7,161.7,522.3,160z"/>
		<path class="st0" d="M518.9,223.9c-0.8-2.3-1.2-4.5-1.3-6.7c-0.1-2.2,0-4.1,0.3-5.7l-2.4-1.2l-0.7-2.2l13.3-4.8l0.8,2.3
			c-1.1,0.9-2.2,2-3.4,3.3c-1.1,1.3-2.1,2.6-2.9,4c-0.8,1.5-1.4,3-1.6,4.5c-0.3,1.6-0.1,3.2,0.5,5c0.8,2.4,2,4,3.6,4.9
			c1.6,0.9,3.2,1,5,0.4c1.4-0.5,2.5-1.4,3.1-2.8c0.6-1.4,0.9-3.4,0.9-5.9c0-1.6,0-3.1,0-4.5c0-1.4,0-2.7,0.1-3.9
			c0.2-2.8,1-5.2,2.4-7c1.4-1.8,3.3-3.1,5.6-3.9c1.4-0.5,2.9-0.6,4.5-0.5c1.5,0.2,3.1,0.7,4.5,1.5c1.4,0.8,2.7,2,3.9,3.6
			c1.2,1.6,2.2,3.4,2.9,5.6c0.7,2.1,1.1,4.1,1.1,6.1c0,2-0.1,3.6-0.3,4.8l2.1,1.1l0.8,2.3l-12.6,4.5l-0.8-2.3c1.2-1,2.4-2.1,3.5-3.2
			c1.2-1.2,2.1-2.3,2.8-3.4c0.7-1.2,1.2-2.5,1.4-3.8c0.2-1.3,0.1-2.7-0.4-4.2c-0.6-1.9-1.7-3.3-3.1-4.1c-1.5-0.8-3-1-4.5-0.5
			c-1.5,0.5-2.5,1.4-3.1,2.8c-0.6,1.4-0.9,3.3-0.8,5.7c0,1.4,0,2.9,0,4.4c0,1.5,0,2.8-0.1,4c-0.1,2.9-0.8,5.3-2.1,7.2
			c-1.3,1.9-3.2,3.3-5.7,4.1c-1.6,0.5-3.3,0.7-5,0.4c-1.8-0.3-3.3-0.9-4.8-1.8c-1.6-1-3-2.4-4.2-4
			C520.8,228.4,519.7,226.3,518.9,223.9z"/>
		<path class="st0" d="M531.8,284.2l-2.2-21.7l2.2-0.2c0.1,0.5,0.2,1.2,0.4,2.2c0.2,1,0.4,1.6,0.5,2c0.3,0.6,0.8,1.1,1.2,1.3
			c0.5,0.2,1.1,0.3,1.8,0.2l27.7-2.9c0.6-0.1,1.2-0.2,1.6-0.5c0.5-0.3,0.8-0.8,1-1.5c0.1-0.5,0.3-1.1,0.4-2c0.1-0.9,0.2-1.6,0.2-2.3
			l2.2-0.2l2.2,21.7l-2.2,0.2c-0.1-0.5-0.3-1.2-0.4-2c-0.2-0.8-0.4-1.5-0.6-2c-0.3-0.7-0.7-1.1-1.3-1.3c-0.5-0.2-1.1-0.2-1.8-0.2
			l-27.6,2.9c-0.7,0.1-1.2,0.3-1.7,0.5c-0.4,0.3-0.8,0.8-1,1.5c-0.1,0.4-0.2,1.1-0.3,2c-0.1,0.9-0.1,1.7-0.1,2.3L531.8,284.2z"/>
		<path class="st0" d="M555.8,347.6l0.3-2.1c1.7-0.4,3.6-1.1,5.7-2.1c2-1,3.2-2.1,3.5-3.1c0.1-0.6,0.3-1.3,0.4-2.1
			c0.2-0.9,0.3-1.6,0.3-2.2l0.2-1.3l-30.5-3.6c-0.7-0.1-1.3,0-1.8,0.2c-0.5,0.2-1,0.6-1.4,1.3c-0.2,0.4-0.5,1-0.7,1.9
			c-0.3,0.9-0.5,1.6-0.6,2.2l-2.1-0.3l2.6-21.8l2.1,0.3c0,0.5,0,1.3,0,2.3c0,1,0,1.6,0.1,2c0.2,0.8,0.5,1.3,1,1.6
			c0.5,0.3,1,0.5,1.7,0.6l30.8,3.7l0.2-1.3c0.1-0.6,0.1-1.4,0.2-2.2c0-0.9,0.1-1.6,0.1-2.2c0-1.1-0.9-2.3-2.7-3.8
			c-1.7-1.5-3.4-2.6-5-3.4l0.3-2.1l11.2,1.3l-4.5,37.8L555.8,347.6z"/>
		<path class="st0" d="M543.1,415.5c0.2-0.6,0.3-1.3,0.3-1.8c0-0.6,0-1.1-0.1-1.7c-0.1-0.9-0.4-1.8-0.8-2.6
			c-0.4-0.8-0.9-1.7-1.5-2.5c-1.2-1.7-2.5-3.6-4-5.6c-1.4-2-3-4.1-4.8-6.4c-1.1-1.5-2-2.5-2.7-3c-0.7-0.5-2-1.1-3.9-1.9l-5.2-2
			c-0.6-0.2-1.2-0.3-1.8-0.3c-0.6,0.1-1.1,0.4-1.6,0.9c-0.2,0.2-0.6,0.8-1.2,1.7c-0.6,0.9-0.9,1.5-1.2,2l-2-0.8l7.9-20.5l2,0.8
			c-0.2,0.5-0.4,1.2-0.6,2.2c-0.2,0.9-0.4,1.6-0.4,2c0,0.7,0.2,1.3,0.6,1.7c0.4,0.4,0.9,0.7,1.5,1l6.5,2.5c0.6,0.2,1.1,0.4,1.5,0.5
			c0.4,0.1,0.8,0.2,1.2,0.2c0.4,0,0.9,0,1.5-0.1c0.6-0.1,1.4-0.2,2.4-0.4c2.8-0.4,5.5-0.9,8.1-1.3c2.6-0.4,5-0.9,7.2-1.3
			c1.2-0.2,2.2-0.5,3-0.9c0.8-0.4,1.5-0.8,2.1-1.3c0.4-0.4,0.8-0.9,1.2-1.5c0.4-0.6,0.7-1.2,0.9-1.7l2,0.8l-8,21l-2-0.8
			c0.7-2,1.1-3.3,1.1-4.1c0-0.8-0.1-1.2-0.5-1.4c-0.2-0.1-0.6-0.1-1.3-0.1c-0.7,0-1.7,0.1-3.1,0.3c-1.3,0.2-3.2,0.4-5.6,0.8
			c-2.4,0.4-5.2,0.8-8.5,1.4c3.9,5.3,6.7,8.9,8.3,10.9c1.6,2,2.6,3.1,3.1,3.3c0.6,0.2,1.2,0,1.8-0.6c0.6-0.6,1.2-1.7,1.9-3.2l2,0.8
			l-5.2,13.6L543.1,415.5z"/>
	</g>
	<path class="st0" d="M500.8,297.6c0,111.8-90.6,202.5-202.4,202.5c-111.8,0-202.5-90.7-202.5-202.5c0-111.8,90.7-202.5,202.5-202.5
		C410.2,95.2,500.8,185.8,500.8,297.6z M268.6,127.9c-8.8,0-16,7.2-16,16v20.7c-16.7,3.8-33.6,10-50.6,18.6
		c-19.2,9.7-38.1,22.3-54.8,36.6c-6.5,5.6-7.2,15.3-1.7,21.8s15.3,7.2,21.8,1.7c26-22.3,56.2-38.8,85.2-46.8v35.5
		c-20.1,6.6-39.8,17.7-58.7,33.3c-21.2,17.5-41,40.2-58.7,67.5c-1.7,2.6-2.5,5.5-2.5,8.4c0,5.1,2.5,10,7,13
		c7.2,4.7,16.7,2.6,21.4-4.5c16-24.7,33.7-45,52.5-60.5c19.1-15.8,40.3-26.6,58.9-30.6c8.3-1.8,12.1-9.4,12.1-14.7
		c0-0.8,0-3.7,0-8.1c0-24,0-91.4,0-91.4v-0.5C284.6,135.1,277.5,127.9,268.6,127.9z M312.1,143.9v0.5c0,0,0,67.4,0,91.4
		c0,4.4,0,7.3,0,8.1c0,5.3,3.8,12.9,12.1,14.7c18.6,3.9,39.8,14.8,58.9,30.6c18.8,15.5,36.4,35.9,52.5,60.5
		c4.6,7.2,14.2,9.2,21.4,4.5c4.6-3,7-7.9,7-13c0-2.9-0.8-5.8-2.5-8.4c-17.7-27.3-37.5-50-58.7-67.5c-18.8-15.6-38.5-26.7-58.7-33.3
		v-35.5c29,8,59.2,24.5,85.2,46.8c6.5,5.6,16.2,4.8,21.8-1.7c5.6-6.5,4.8-16.2-1.7-21.8c-16.6-14.2-35.6-26.9-54.8-36.6
		c-16.9-8.5-33.9-14.8-50.6-18.6v-20.7c0-8.8-7.2-16-16-16C319.2,127.9,312.1,135.1,312.1,143.9z M424.2,400.6
		c-6.7-15.7-14.3-30.1-22.7-42.9c-8.8-13.5-18.3-25.2-28.4-34.9c-10.9-10.4-22.5-18.4-34.5-24c-7.9-3.6-16-6.2-24.2-7.6v-9.4
		c0-8.8-7.2-16-16-16c-8.8,0-16,7.2-16,16v9.4c-8.2,1.4-16.3,4-24.2,7.6c-12,5.5-23.6,13.6-34.5,24c-10.1,9.7-19.7,21.4-28.5,34.9
		c-8.3,12.8-16,27.3-22.7,42.9c-3.4,7.8,0.3,16.9,8.1,20.3c7.9,3.4,16.9-0.3,20.3-8.1c12.1-28.3,27.4-51.7,44.1-67.6
		c12-11.5,24.5-18.9,37.3-22.3V348c0,8.6-6.4,12-9.3,13.8c-0.9,0.6-3,1.8-3.9,2.4c-5.9,3.8-12.7,9.8-19.1,18
		c-11.5,14.8-20.5,34.9-25.2,56.6c-1.8,8.3,3.5,16.6,11.8,18.4c8.3,1.8,16.6-3.5,18.4-11.8c3.8-17.3,10.6-33,19.4-44.2
		c4.5-5.7,13.5-15.3,24-15.3c10.5,0,19.5,9.6,24,15.3c8.7,11.2,15.6,26.9,19.4,44.2c1.8,8.3,10.1,13.6,18.4,11.8
		c8.3-1.8,13.6-10.1,11.8-18.4c-4.7-21.8-13.7-41.9-25.2-56.6c-6.4-8.2-13.2-14.1-19.1-18c-1-0.6-3-1.8-3.9-2.4
		c-2.9-1.8-9.3-5.2-9.3-13.8v-25.2c12.8,3.4,25.3,10.9,37.3,22.3c16.7,15.9,31.9,39.3,44.1,67.6c3.4,7.8,12.5,11.5,20.3,8.1
		C423.9,417.5,427.5,408.4,424.2,400.6z"/>
</g>
</svg>
